<svg xmlns="http://www.w3.org/2000/svg" width="150" viewBox="0 0 150 37.5" height="37.5" version="1.0"><defs><clipPath id="a"><path d="M 2 1.164062 L 37 1.164062 L 37 35.890625 L 2 35.890625 Z M 2 1.164062"/></clipPath><clipPath id="b"><path d="M 20 5.785156 L 27.65625 5.785156 L 27.65625 16 L 20 16 Z M 20 5.785156"/></clipPath><clipPath id="c"><path d="M 22 5.785156 L 24 5.785156 L 24 11 L 22 11 Z M 22 5.785156"/></clipPath><clipPath id="d"><path d="M 24 5.785156 L 26 5.785156 L 26 11 L 24 11 Z M 24 5.785156"/></clipPath><clipPath id="e"><path d="M 22 18 L 26 18 L 26 31.222656 L 22 31.222656 Z M 22 18"/></clipPath><clipPath id="f"><path d="M 12 18 L 17 18 L 17 31.222656 L 12 31.222656 Z M 12 18"/></clipPath><clipPath id="g"><path d="M 10.867188 5.785156 L 19 5.785156 L 19 16 L 10.867188 16 Z M 10.867188 5.785156"/></clipPath></defs><g fill="#28A745"><g><g><path d="M 7.59375 -11.234375 C 6.800781 -11.234375 6.179688 -10.984375 5.734375 -10.484375 C 5.296875 -9.984375 5.039062 -9.273438 4.96875 -8.359375 L 10.1875 -8.359375 C 10.175781 -9.273438 9.9375 -9.984375 9.46875 -10.484375 C 9.007812 -10.984375 8.382812 -11.234375 7.59375 -11.234375 Z M 8.125 0.25 C 5.925781 0.25 4.207031 -0.351562 2.96875 -1.5625 C 1.738281 -2.78125 1.125 -4.5 1.125 -6.71875 C 1.125 -9 1.691406 -10.765625 2.828125 -12.015625 C 3.972656 -13.265625 5.554688 -13.890625 7.578125 -13.890625 C 9.492188 -13.890625 10.988281 -13.335938 12.0625 -12.234375 C 13.132812 -11.140625 13.671875 -9.625 13.671875 -7.6875 L 13.671875 -5.890625 L 4.890625 -5.890625 C 4.929688 -4.828125 5.242188 -4 5.828125 -3.40625 C 6.410156 -2.820312 7.234375 -2.53125 8.296875 -2.53125 C 9.109375 -2.53125 9.878906 -2.613281 10.609375 -2.78125 C 11.347656 -2.945312 12.113281 -3.21875 12.90625 -3.59375 L 12.90625 -0.71875 C 12.257812 -0.394531 11.566406 -0.15625 10.828125 0 C 10.085938 0.164062 9.1875 0.25 8.125 0.25 Z M 8.125 0.25" transform="translate(38.698 25.54)"/></g></g></g><g fill="#28A745"><g><g><path d="M 0.75 -5.171875 L 0.75 -8.21875 L 7.296875 -8.21875 L 7.296875 -5.171875 Z M 0.75 -5.171875" transform="translate(53.448 25.54)"/></g></g></g><g fill="#28A745"><g><g><path d="M 9.796875 0 L 5.5 -13.984375 L 5.390625 -13.984375 C 5.546875 -11.140625 5.625 -9.242188 5.625 -8.296875 L 5.625 0 L 2.25 0 L 2.25 -17.828125 L 7.390625 -17.828125 L 11.609375 -4.1875 L 11.6875 -4.1875 L 16.15625 -17.828125 L 21.296875 -17.828125 L 21.296875 0 L 17.78125 0 L 17.78125 -8.4375 C 17.78125 -8.832031 17.785156 -9.289062 17.796875 -9.8125 C 17.804688 -10.332031 17.859375 -11.710938 17.953125 -13.953125 L 17.84375 -13.953125 L 13.25 0 Z M 9.796875 0" transform="translate(61.481 25.54)"/></g></g></g><g fill="#28A745"><g><g><path d="M 7.59375 -11.234375 C 6.800781 -11.234375 6.179688 -10.984375 5.734375 -10.484375 C 5.296875 -9.984375 5.039062 -9.273438 4.96875 -8.359375 L 10.1875 -8.359375 C 10.175781 -9.273438 9.9375 -9.984375 9.46875 -10.484375 C 9.007812 -10.984375 8.382812 -11.234375 7.59375 -11.234375 Z M 8.125 0.25 C 5.925781 0.25 4.207031 -0.351562 2.96875 -1.5625 C 1.738281 -2.78125 1.125 -4.5 1.125 -6.71875 C 1.125 -9 1.691406 -10.765625 2.828125 -12.015625 C 3.972656 -13.265625 5.554688 -13.890625 7.578125 -13.890625 C 9.492188 -13.890625 10.988281 -13.335938 12.0625 -12.234375 C 13.132812 -11.140625 13.671875 -9.625 13.671875 -7.6875 L 13.671875 -5.890625 L 4.890625 -5.890625 C 4.929688 -4.828125 5.242188 -4 5.828125 -3.40625 C 6.410156 -2.820312 7.234375 -2.53125 8.296875 -2.53125 C 9.109375 -2.53125 9.878906 -2.613281 10.609375 -2.78125 C 11.347656 -2.945312 12.113281 -3.21875 12.90625 -3.59375 L 12.90625 -0.71875 C 12.257812 -0.394531 11.566406 -0.15625 10.828125 0 C 10.085938 0.164062 9.1875 0.25 8.125 0.25 Z M 8.125 0.25" transform="translate(85.02 25.54)"/></g></g></g><g fill="#28A745"><g><g><path d="M 6.265625 0.25 C 4.660156 0.25 3.398438 -0.367188 2.484375 -1.609375 C 1.578125 -2.859375 1.125 -4.585938 1.125 -6.796875 C 1.125 -9.023438 1.585938 -10.765625 2.515625 -12.015625 C 3.441406 -13.265625 4.722656 -13.890625 6.359375 -13.890625 C 8.078125 -13.890625 9.390625 -13.222656 10.296875 -11.890625 L 10.40625 -11.890625 C 10.21875 -12.898438 10.125 -13.804688 10.125 -14.609375 L 10.125 -18.96875 L 13.859375 -18.96875 L 13.859375 0 L 11.015625 0 L 10.296875 -1.765625 L 10.125 -1.765625 C 9.28125 -0.421875 7.992188 0.25 6.265625 0.25 Z M 7.578125 -2.71875 C 8.523438 -2.71875 9.21875 -2.992188 9.65625 -3.546875 C 10.101562 -4.097656 10.347656 -5.035156 10.390625 -6.359375 L 10.390625 -6.765625 C 10.390625 -8.234375 10.160156 -9.28125 9.703125 -9.90625 C 9.253906 -10.539062 8.523438 -10.859375 7.515625 -10.859375 C 6.679688 -10.859375 6.035156 -10.503906 5.578125 -9.796875 C 5.117188 -9.097656 4.890625 -8.078125 4.890625 -6.734375 C 4.890625 -5.398438 5.117188 -4.394531 5.578125 -3.71875 C 6.046875 -3.050781 6.710938 -2.71875 7.578125 -2.71875 Z M 7.578125 -2.71875" transform="translate(99.77 25.54)"/></g></g></g><g fill="#28A745"><g><g><path d="M 10.609375 0 L 9.890625 -1.859375 L 9.796875 -1.859375 C 9.160156 -1.066406 8.507812 -0.515625 7.84375 -0.203125 C 7.1875 0.0976562 6.328125 0.25 5.265625 0.25 C 3.953125 0.25 2.921875 -0.125 2.171875 -0.875 C 1.421875 -1.625 1.046875 -2.691406 1.046875 -4.078125 C 1.046875 -5.523438 1.550781 -6.585938 2.5625 -7.265625 C 3.570312 -7.953125 5.097656 -8.332031 7.140625 -8.40625 L 9.515625 -8.484375 L 9.515625 -9.078125 C 9.515625 -10.460938 8.804688 -11.15625 7.390625 -11.15625 C 6.296875 -11.15625 5.015625 -10.828125 3.546875 -10.171875 L 2.3125 -12.671875 C 3.882812 -13.492188 5.625 -13.90625 7.53125 -13.90625 C 9.363281 -13.90625 10.765625 -13.503906 11.734375 -12.703125 C 12.710938 -11.910156 13.203125 -10.703125 13.203125 -9.078125 L 13.203125 0 Z M 9.515625 -6.3125 L 8.078125 -6.265625 C 6.992188 -6.234375 6.1875 -6.035156 5.65625 -5.671875 C 5.125 -5.316406 4.859375 -4.773438 4.859375 -4.046875 C 4.859375 -2.992188 5.460938 -2.46875 6.671875 -2.46875 C 7.535156 -2.46875 8.222656 -2.71875 8.734375 -3.21875 C 9.253906 -3.71875 9.515625 -4.375 9.515625 -5.1875 Z M 9.515625 -6.3125" transform="translate(115.57 25.54)"/></g></g></g><g fill="#28A745"><g><g><path d="M 14.53125 0 L 10.8125 0 L 10.8125 -7.96875 C 10.8125 -8.945312 10.632812 -9.679688 10.28125 -10.171875 C 9.9375 -10.660156 9.382812 -10.90625 8.625 -10.90625 C 7.582031 -10.90625 6.828125 -10.554688 6.359375 -9.859375 C 5.898438 -9.171875 5.671875 -8.019531 5.671875 -6.40625 L 5.671875 0 L 1.953125 0 L 1.953125 -13.625 L 4.796875 -13.625 L 5.296875 -11.890625 L 5.5 -11.890625 C 5.914062 -12.546875 6.484375 -13.039062 7.203125 -13.375 C 7.929688 -13.71875 8.757812 -13.890625 9.6875 -13.890625 C 11.269531 -13.890625 12.472656 -13.457031 13.296875 -12.59375 C 14.117188 -11.738281 14.53125 -10.503906 14.53125 -8.890625 Z M 14.53125 0" transform="translate(130.649 25.54)"/></g></g></g><g fill="#43494D"><g><g><path d="M 3.582031 -4.597656 L 3.582031 -5.085938 L 0.5625 -5.085938 L 0.5625 0 L 1.085938 0 L 1.085938 -2.296875 L 3.507812 -2.296875 L 3.507812 -2.789062 L 1.085938 -2.789062 L 1.085938 -4.597656 Z M 3.582031 -4.597656" transform="translate(40.707 33.486)"/></g></g></g><g fill="#43494D"><g><g><path d="M 5.039062 -2.558594 C 5.039062 -1.972656 4.832031 -1.480469 4.425781 -1.078125 C 4.015625 -0.664062 3.523438 -0.464844 2.945312 -0.464844 C 2.371094 -0.464844 1.875 -0.664062 1.472656 -1.078125 C 1.0625 -1.480469 0.859375 -1.972656 0.859375 -2.558594 C 0.859375 -3.125 1.0625 -3.617188 1.472656 -4.03125 C 1.875 -4.433594 2.371094 -4.644531 2.945312 -4.644531 C 3.523438 -4.644531 4.015625 -4.433594 4.425781 -4.03125 C 4.832031 -3.617188 5.039062 -3.125 5.039062 -2.558594 Z M 5.5625 -2.558594 C 5.5625 -2.917969 5.488281 -3.253906 5.355469 -3.574219 C 5.21875 -3.886719 5.03125 -4.164062 4.792969 -4.402344 C 4.554688 -4.636719 4.277344 -4.824219 3.964844 -4.957031 C 3.640625 -5.09375 3.304688 -5.167969 2.945312 -5.167969 C 2.585938 -5.167969 2.242188 -5.09375 1.929688 -4.957031 C 1.613281 -4.824219 1.339844 -4.636719 1.097656 -4.402344 C 0.859375 -4.164062 0.671875 -3.886719 0.539062 -3.574219 C 0.402344 -3.253906 0.335938 -2.917969 0.335938 -2.558594 C 0.335938 -2.199219 0.402344 -1.855469 0.539062 -1.539062 C 0.671875 -1.21875 0.859375 -0.941406 1.097656 -0.703125 C 1.339844 -0.464844 1.613281 -0.277344 1.929688 -0.140625 C 2.242188 -0.0078125 2.585938 0.0585938 2.945312 0.0585938 C 3.304688 0.0585938 3.640625 -0.0078125 3.964844 -0.140625 C 4.277344 -0.277344 4.554688 -0.464844 4.792969 -0.703125 C 5.03125 -0.941406 5.21875 -1.21875 5.355469 -1.539062 C 5.488281 -1.855469 5.5625 -2.199219 5.5625 -2.558594 Z M 5.5625 -2.558594" transform="translate(45.455 33.486)"/></g></g></g><g fill="#43494D"><g><g><path d="M 5.039062 -2.558594 C 5.039062 -1.972656 4.832031 -1.480469 4.425781 -1.078125 C 4.015625 -0.664062 3.523438 -0.464844 2.945312 -0.464844 C 2.371094 -0.464844 1.875 -0.664062 1.472656 -1.078125 C 1.0625 -1.480469 0.859375 -1.972656 0.859375 -2.558594 C 0.859375 -3.125 1.0625 -3.617188 1.472656 -4.03125 C 1.875 -4.433594 2.371094 -4.644531 2.945312 -4.644531 C 3.523438 -4.644531 4.015625 -4.433594 4.425781 -4.03125 C 4.832031 -3.617188 5.039062 -3.125 5.039062 -2.558594 Z M 5.5625 -2.558594 C 5.5625 -2.917969 5.488281 -3.253906 5.355469 -3.574219 C 5.21875 -3.886719 5.03125 -4.164062 4.792969 -4.402344 C 4.554688 -4.636719 4.277344 -4.824219 3.964844 -4.957031 C 3.640625 -5.09375 3.304688 -5.167969 2.945312 -5.167969 C 2.585938 -5.167969 2.242188 -5.09375 1.929688 -4.957031 C 1.613281 -4.824219 1.339844 -4.636719 1.097656 -4.402344 C 0.859375 -4.164062 0.671875 -3.886719 0.539062 -3.574219 C 0.402344 -3.253906 0.335938 -2.917969 0.335938 -2.558594 C 0.335938 -2.199219 0.402344 -1.855469 0.539062 -1.539062 C 0.671875 -1.21875 0.859375 -0.941406 1.097656 -0.703125 C 1.339844 -0.464844 1.613281 -0.277344 1.929688 -0.140625 C 2.242188 -0.0078125 2.585938 0.0585938 2.945312 0.0585938 C 3.304688 0.0585938 3.640625 -0.0078125 3.964844 -0.140625 C 4.277344 -0.277344 4.554688 -0.464844 4.792969 -0.703125 C 5.03125 -0.941406 5.21875 -1.21875 5.355469 -1.539062 C 5.488281 -1.855469 5.5625 -2.199219 5.5625 -2.558594 Z M 5.5625 -2.558594" transform="translate(52.37 33.486)"/></g></g></g><g fill="#43494D"><g><g><path d="M 4.507812 -2.542969 C 4.507812 -2.910156 4.433594 -3.246094 4.300781 -3.558594 C 4.164062 -3.875 3.976562 -4.140625 3.746094 -4.367188 C 3.507812 -4.589844 3.230469 -4.761719 2.917969 -4.890625 C 2.59375 -5.015625 2.25 -5.085938 1.890625 -5.085938 L 0.5625 -5.085938 L 0.5625 0 L 1.890625 0 C 2.25 0 2.59375 -0.0585938 2.917969 -0.1875 C 3.230469 -0.3125 3.507812 -0.492188 3.746094 -0.71875 C 3.976562 -0.941406 4.164062 -1.203125 4.300781 -1.519531 C 4.433594 -1.832031 4.507812 -2.167969 4.507812 -2.542969 Z M 4 -2.542969 C 4 -1.960938 3.789062 -1.472656 3.386719 -1.089844 C 2.984375 -0.710938 2.488281 -0.523438 1.90625 -0.523438 L 1.085938 -0.523438 L 1.085938 -4.5625 L 1.90625 -4.5625 C 2.488281 -4.5625 2.984375 -4.367188 3.386719 -3.992188 C 3.789062 -3.605469 4 -3.117188 4 -2.542969 Z M 4 -2.542969" transform="translate(59.286 33.486)"/></g></g></g><g fill="#43494D"><g><g><path d="M 5.039062 -2.558594 C 5.039062 -1.972656 4.832031 -1.480469 4.425781 -1.078125 C 4.015625 -0.664062 3.523438 -0.464844 2.945312 -0.464844 C 2.371094 -0.464844 1.875 -0.664062 1.472656 -1.078125 C 1.0625 -1.480469 0.859375 -1.972656 0.859375 -2.558594 C 0.859375 -3.125 1.0625 -3.617188 1.472656 -4.03125 C 1.875 -4.433594 2.371094 -4.644531 2.945312 -4.644531 C 3.523438 -4.644531 4.015625 -4.433594 4.425781 -4.03125 C 4.832031 -3.617188 5.039062 -3.125 5.039062 -2.558594 Z M 5.5625 -2.558594 C 5.5625 -2.917969 5.488281 -3.253906 5.355469 -3.574219 C 5.21875 -3.886719 5.03125 -4.164062 4.792969 -4.402344 C 4.554688 -4.636719 4.277344 -4.824219 3.964844 -4.957031 C 3.640625 -5.09375 3.304688 -5.167969 2.945312 -5.167969 C 2.585938 -5.167969 2.242188 -5.09375 1.929688 -4.957031 C 1.613281 -4.824219 1.339844 -4.636719 1.097656 -4.402344 C 0.859375 -4.164062 0.671875 -3.886719 0.539062 -3.574219 C 0.402344 -3.253906 0.335938 -2.917969 0.335938 -2.558594 C 0.335938 -2.199219 0.402344 -1.855469 0.539062 -1.539062 C 0.671875 -1.21875 0.859375 -0.941406 1.097656 -0.703125 C 1.339844 -0.464844 1.613281 -0.277344 1.929688 -0.140625 C 2.242188 -0.0078125 2.585938 0.0585938 2.945312 0.0585938 C 3.304688 0.0585938 3.640625 -0.0078125 3.964844 -0.140625 C 4.277344 -0.277344 4.554688 -0.464844 4.792969 -0.703125 C 5.03125 -0.941406 5.21875 -1.21875 5.355469 -1.539062 C 5.488281 -1.855469 5.5625 -2.199219 5.5625 -2.558594 Z M 5.5625 -2.558594" transform="translate(68.183 33.486)"/></g></g></g><g fill="#43494D"><g><g><path d="M 1.085938 -2.511719 L 1.085938 -4.582031 L 2.265625 -4.582031 C 2.570312 -4.582031 2.820312 -4.488281 3.007812 -4.292969 C 3.183594 -4.097656 3.28125 -3.859375 3.28125 -3.558594 C 3.28125 -3.261719 3.183594 -3.011719 2.992188 -2.8125 C 2.796875 -2.609375 2.558594 -2.511719 2.265625 -2.511719 Z M 3.804688 -3.550781 C 3.804688 -3.984375 3.640625 -4.359375 3.328125 -4.652344 C 3.019531 -4.933594 2.640625 -5.085938 2.191406 -5.085938 L 0.5625 -5.085938 L 0.5625 0 L 1.085938 0 L 1.085938 -2.011719 L 1.691406 -2.011719 L 3.183594 0 L 3.886719 0 L 2.316406 -2.011719 C 2.714844 -2.035156 3.050781 -2.175781 3.328125 -2.4375 C 3.640625 -2.730469 3.804688 -3.101562 3.804688 -3.550781 Z M 3.804688 -3.550781" transform="translate(75.099 33.486)"/></g></g></g><g fill="#43494D"><g><g><path d="M 4.507812 -2.542969 C 4.507812 -2.910156 4.433594 -3.246094 4.300781 -3.558594 C 4.164062 -3.875 3.976562 -4.140625 3.746094 -4.367188 C 3.507812 -4.589844 3.230469 -4.761719 2.917969 -4.890625 C 2.59375 -5.015625 2.25 -5.085938 1.890625 -5.085938 L 0.5625 -5.085938 L 0.5625 0 L 1.890625 0 C 2.25 0 2.59375 -0.0585938 2.917969 -0.1875 C 3.230469 -0.3125 3.507812 -0.492188 3.746094 -0.71875 C 3.976562 -0.941406 4.164062 -1.203125 4.300781 -1.519531 C 4.433594 -1.832031 4.507812 -2.167969 4.507812 -2.542969 Z M 4 -2.542969 C 4 -1.960938 3.789062 -1.472656 3.386719 -1.089844 C 2.984375 -0.710938 2.488281 -0.523438 1.90625 -0.523438 L 1.085938 -0.523438 L 1.085938 -4.5625 L 1.90625 -4.5625 C 2.488281 -4.5625 2.984375 -4.367188 3.386719 -3.992188 C 3.789062 -3.605469 4 -3.117188 4 -2.542969 Z M 4 -2.542969" transform="translate(80.183 33.486)"/></g></g></g><g fill="#43494D"><g><g><path d="M 3.582031 0 L 3.582031 -0.484375 L 1.085938 -0.484375 L 1.085938 -2.296875 L 3.507812 -2.296875 L 3.507812 -2.789062 L 1.085938 -2.789062 L 1.085938 -4.597656 L 3.582031 -4.597656 L 3.582031 -5.085938 L 0.5625 -5.085938 L 0.5625 0 Z M 3.582031 0" transform="translate(86.044 33.486)"/></g></g></g><g fill="#43494D"><g><g><path d="M 1.085938 -2.511719 L 1.085938 -4.582031 L 2.265625 -4.582031 C 2.570312 -4.582031 2.820312 -4.488281 3.007812 -4.292969 C 3.183594 -4.097656 3.28125 -3.859375 3.28125 -3.558594 C 3.28125 -3.261719 3.183594 -3.011719 2.992188 -2.8125 C 2.796875 -2.609375 2.558594 -2.511719 2.265625 -2.511719 Z M 3.804688 -3.550781 C 3.804688 -3.984375 3.640625 -4.359375 3.328125 -4.652344 C 3.019531 -4.933594 2.640625 -5.085938 2.191406 -5.085938 L 0.5625 -5.085938 L 0.5625 0 L 1.085938 0 L 1.085938 -2.011719 L 1.691406 -2.011719 L 3.183594 0 L 3.886719 0 L 2.316406 -2.011719 C 2.714844 -2.035156 3.050781 -2.175781 3.328125 -2.4375 C 3.640625 -2.730469 3.804688 -3.101562 3.804688 -3.550781 Z M 3.804688 -3.550781" transform="translate(91.203 33.486)"/></g></g></g><g fill="#43494D"><g><g><path d="M 1.085938 0 L 1.085938 -5.085938 L 0.5625 -5.085938 L 0.5625 0 Z M 1.085938 0" transform="translate(96.287 33.486)"/></g></g></g><g fill="#43494D"><g><g><path d="M 1.085938 -3.746094 L 3.941406 0.3125 L 3.941406 -5.085938 L 3.417969 -5.085938 L 3.417969 -1.347656 L 0.5625 -5.40625 L 0.5625 0 L 1.085938 0 Z M 1.085938 -3.746094" transform="translate(98.949 33.486)"/></g></g></g><g fill="#43494D"><g><g><path d="M 5.578125 -2.378906 L 2.929688 -2.378906 L 2.929688 -1.921875 L 4.996094 -1.921875 C 4.835938 -1.480469 4.574219 -1.121094 4.203125 -0.859375 C 3.828125 -0.589844 3.410156 -0.464844 2.953125 -0.464844 C 2.371094 -0.464844 1.875 -0.664062 1.464844 -1.078125 C 1.0625 -1.488281 0.859375 -1.988281 0.859375 -2.566406 C 0.859375 -3.140625 1.0625 -3.632812 1.472656 -4.046875 C 1.875 -4.449219 2.371094 -4.660156 2.953125 -4.660156 C 3.386719 -4.660156 3.785156 -4.53125 4.136719 -4.285156 C 4.492188 -4.039062 4.75 -3.714844 4.914062 -3.304688 L 5.464844 -3.304688 C 5.292969 -3.867188 4.972656 -4.3125 4.507812 -4.660156 C 4.046875 -5.003906 3.507812 -5.183594 2.902344 -5.183594 C 2.570312 -5.183594 2.25 -5.105469 1.9375 -4.972656 C 1.613281 -4.835938 1.339844 -4.652344 1.097656 -4.410156 C 0.859375 -4.171875 0.671875 -3.894531 0.539062 -3.582031 C 0.402344 -3.261719 0.335938 -2.917969 0.335938 -2.558594 C 0.335938 -2.199219 0.402344 -1.855469 0.539062 -1.539062 C 0.671875 -1.21875 0.859375 -0.941406 1.097656 -0.703125 C 1.339844 -0.464844 1.613281 -0.277344 1.9375 -0.140625 C 2.25 -0.0078125 2.59375 0.0585938 2.953125 0.0585938 C 3.566406 0.0585938 4.121094 -0.132812 4.613281 -0.53125 C 5.105469 -0.933594 5.414062 -1.441406 5.527344 -2.0625 Z M 5.578125 -2.378906" transform="translate(104.466 33.486)"/></g></g></g><g fill="#43494D"><g><g><path d="M 1.964844 -2.394531 C 2.625 -2.234375 3.074219 -2.0625 3.3125 -1.871094 C 3.476562 -1.734375 3.558594 -1.5625 3.558594 -1.351562 C 3.558594 -1.144531 3.515625 -0.972656 3.425781 -0.851562 C 3.199219 -0.539062 2.796875 -0.382812 2.226562 -0.382812 C 1.4375 -0.382812 0.988281 -0.652344 0.890625 -1.1875 L 0.277344 -1.1875 C 0.457031 -0.328125 1.105469 0.0976562 2.226562 0.0976562 C 2.730469 0.0976562 3.148438 -0.0078125 3.484375 -0.230469 C 3.886719 -0.492188 4.097656 -0.882812 4.097656 -1.390625 C 4.097656 -1.808594 3.933594 -2.132812 3.605469 -2.355469 C 3.371094 -2.519531 3 -2.667969 2.484375 -2.804688 C 1.960938 -2.9375 1.621094 -3.050781 1.464844 -3.132812 C 1.121094 -3.304688 0.949219 -3.542969 0.957031 -3.859375 C 0.957031 -4.023438 0.988281 -4.164062 1.0625 -4.269531 C 1.257812 -4.5625 1.601562 -4.710938 2.09375 -4.710938 C 2.789062 -4.710938 3.183594 -4.488281 3.289062 -4.050781 L 3.859375 -4.050781 C 3.671875 -4.785156 3.082031 -5.160156 2.09375 -5.160156 C 1.644531 -5.160156 1.25 -5.039062 0.917969 -4.800781 C 0.582031 -4.5625 0.410156 -4.210938 0.410156 -3.730469 C 0.410156 -3.082031 0.933594 -2.632812 1.964844 -2.394531 Z M 1.964844 -2.394531" transform="translate(114.432 33.486)"/></g></g></g><g fill="#43494D"><g><g><path d="M 2.527344 -2.394531 L 4.449219 -5.085938 L 3.785156 -5.085938 L 2.265625 -2.910156 L 0.746094 -5.085938 L 0.0742188 -5.085938 L 2.003906 -2.386719 L 2.003906 0 L 2.527344 0 Z M 2.527344 -2.394531" transform="translate(119.74 33.486)"/></g></g></g><g fill="#43494D"><g><g><path d="M 1.964844 -2.394531 C 2.625 -2.234375 3.074219 -2.0625 3.3125 -1.871094 C 3.476562 -1.734375 3.558594 -1.5625 3.558594 -1.351562 C 3.558594 -1.144531 3.515625 -0.972656 3.425781 -0.851562 C 3.199219 -0.539062 2.796875 -0.382812 2.226562 -0.382812 C 1.4375 -0.382812 0.988281 -0.652344 0.890625 -1.1875 L 0.277344 -1.1875 C 0.457031 -0.328125 1.105469 0.0976562 2.226562 0.0976562 C 2.730469 0.0976562 3.148438 -0.0078125 3.484375 -0.230469 C 3.886719 -0.492188 4.097656 -0.882812 4.097656 -1.390625 C 4.097656 -1.808594 3.933594 -2.132812 3.605469 -2.355469 C 3.371094 -2.519531 3 -2.667969 2.484375 -2.804688 C 1.960938 -2.9375 1.621094 -3.050781 1.464844 -3.132812 C 1.121094 -3.304688 0.949219 -3.542969 0.957031 -3.859375 C 0.957031 -4.023438 0.988281 -4.164062 1.0625 -4.269531 C 1.257812 -4.5625 1.601562 -4.710938 2.09375 -4.710938 C 2.789062 -4.710938 3.183594 -4.488281 3.289062 -4.050781 L 3.859375 -4.050781 C 3.671875 -4.785156 3.082031 -5.160156 2.09375 -5.160156 C 1.644531 -5.160156 1.25 -5.039062 0.917969 -4.800781 C 0.582031 -4.5625 0.410156 -4.210938 0.410156 -3.730469 C 0.410156 -3.082031 0.933594 -2.632812 1.964844 -2.394531 Z M 1.964844 -2.394531" transform="translate(125.28 33.486)"/></g></g></g><g fill="#43494D"><g><g><path d="M 0.148438 -4.613281 L 1.382812 -4.613281 L 1.382812 -0.015625 L 1.90625 -0.015625 L 1.90625 -4.613281 L 3.140625 -4.613281 L 3.140625 -5.097656 L 0.148438 -5.097656 Z M 0.148438 -4.613281" transform="translate(130.589 33.486)"/></g></g></g><g fill="#43494D"><g><g><path d="M 3.582031 0 L 3.582031 -0.484375 L 1.085938 -0.484375 L 1.085938 -2.296875 L 3.507812 -2.296875 L 3.507812 -2.789062 L 1.085938 -2.789062 L 1.085938 -4.597656 L 3.582031 -4.597656 L 3.582031 -5.085938 L 0.5625 -5.085938 L 0.5625 0 Z M 3.582031 0" transform="translate(134.895 33.486)"/></g></g></g><g fill="#43494D"><g><g><path d="M 5.25 0 L 5.78125 0 L 4.597656 -5.421875 L 2.929688 -1.070312 L 1.261719 -5.421875 L 0.0742188 0 L 0.613281 0 L 1.398438 -3.617188 L 2.929688 0.300781 L 4.457031 -3.617188 Z M 5.25 0" transform="translate(140.054 33.486)"/></g></g></g><g clip-path="url(#a)"><path fill="#28A745" d="M 18.839844 35.894531 C 15.949219 35.308594 13.011719 35.769531 10.105469 35.132812 C 8.914062 35.179688 9.78125 33.667969 8.761719 33.394531 C 8.328125 33.210938 8.046875 32.984375 8.265625 32.441406 C 8.171875 31.414062 6.65625 30.800781 5.867188 30.222656 C 1.050781 26.636719 2.273438 19.660156 2.742188 14.421875 C 3.917969 7.0625 11.695312 2.257812 18.542969 1.234375 C 20.867188 1.167969 23.164062 1.71875 25.449219 1.699219 C 27.027344 1.703125 28.265625 3.054688 29.863281 3.214844 C 33.429688 4.355469 34.800781 8.242188 36.039062 11.386719 C 36.105469 11.632812 36.347656 11.851562 36.0625 12.121094 C 35.886719 12.554688 36.441406 12.777344 36.375 13.269531 C 36.195312 14.457031 36.519531 15.746094 35.785156 16.820312 C 34.5 18.953125 37.449219 20.496094 35.289062 23.6875 C 34.875 24.554688 34.816406 25.589844 34.085938 26.296875 C 33.4375 28.542969 31.574219 29.9375 29.789062 31.203125 C 28.3125 32.632812 26.632812 33.75 24.746094 34.558594 C 22.859375 35.367188 20.890625 35.8125 18.839844 35.894531 Z M 18.839844 35.894531"/></g><g clip-path="url(#b)"><path fill="#FFF" d="M 24.4375 15.910156 L 23.640625 15.910156 C 22.761719 15.910156 22.042969 15.617188 21.503906 15.046875 C 20.4375 13.917969 20.53125 12.085938 20.539062 12.011719 L 20.535156 6.449219 C 20.535156 6.09375 20.824219 5.808594 21.179688 5.808594 C 21.53125 5.808594 21.820312 6.09375 21.820312 6.449219 L 21.820312 12.046875 C 21.820312 12.097656 21.753906 13.445312 22.441406 14.167969 C 22.730469 14.476562 23.125 14.625 23.640625 14.625 L 24.4375 14.625 C 24.953125 14.625 25.347656 14.472656 25.636719 14.164062 C 26.316406 13.445312 26.257812 12.097656 26.257812 12.085938 L 26.257812 6.449219 C 26.257812 6.09375 26.542969 5.808594 26.898438 5.808594 C 27.253906 5.808594 27.539062 6.09375 27.539062 6.449219 L 27.539062 12.046875 C 27.542969 12.085938 27.640625 13.917969 26.574219 15.046875 C 26.035156 15.617188 25.316406 15.910156 24.4375 15.910156 Z M 24.4375 15.910156"/></g><g clip-path="url(#c)"><path fill="#FFF" d="M 23.140625 10.566406 C 22.789062 10.566406 22.5 10.277344 22.5 9.921875 L 22.5 6.433594 C 22.5 6.078125 22.789062 5.789062 23.140625 5.789062 C 23.496094 5.789062 23.785156 6.078125 23.785156 6.433594 L 23.785156 9.921875 C 23.785156 10.277344 23.496094 10.566406 23.140625 10.566406 Z M 23.140625 10.566406"/></g><g clip-path="url(#d)"><path fill="#FFF" d="M 24.933594 10.566406 C 24.578125 10.566406 24.292969 10.277344 24.292969 9.921875 L 24.292969 6.433594 C 24.292969 6.078125 24.578125 5.789062 24.933594 5.789062 C 25.289062 5.789062 25.578125 6.078125 25.578125 6.433594 L 25.578125 9.921875 C 25.578125 10.277344 25.289062 10.566406 24.933594 10.566406 Z M 24.933594 10.566406"/></g><g clip-path="url(#e)"><path fill="#FFF" d="M 24.222656 31.234375 L 23.851562 31.234375 C 23.023438 31.234375 22.351562 30.558594 22.351562 29.730469 L 22.351562 19.003906 C 22.351562 18.648438 22.640625 18.359375 22.992188 18.359375 L 25.082031 18.359375 C 25.4375 18.359375 25.726562 18.648438 25.726562 19.003906 L 25.726562 29.730469 C 25.726562 30.558594 25.050781 31.234375 24.222656 31.234375 Z M 23.636719 19.644531 L 23.636719 29.730469 C 23.636719 29.851562 23.734375 29.949219 23.851562 29.949219 L 24.222656 29.949219 C 24.34375 29.949219 24.441406 29.851562 24.441406 29.730469 L 24.441406 19.644531 Z M 23.636719 19.644531"/></g><path fill="#FFF" d="M 24.039062 19.644531 C 23.683594 19.644531 23.394531 19.355469 23.394531 19.003906 L 23.394531 15.265625 C 23.394531 14.910156 23.683594 14.625 24.039062 14.625 C 24.390625 14.625 24.679688 14.910156 24.679688 15.265625 L 24.679688 19.003906 C 24.679688 19.359375 24.390625 19.644531 24.039062 19.644531 Z M 24.039062 19.644531"/><g clip-path="url(#f)"><path fill="#FFF" d="M 14.847656 31.234375 L 14.476562 31.234375 C 13.648438 31.234375 12.976562 30.558594 12.976562 29.730469 L 12.976562 19.003906 C 12.976562 18.648438 13.261719 18.359375 13.617188 18.359375 L 15.707031 18.359375 C 16.0625 18.359375 16.347656 18.648438 16.347656 19.003906 L 16.347656 29.730469 C 16.347656 30.558594 15.675781 31.234375 14.847656 31.234375 Z M 14.261719 19.644531 L 14.261719 29.730469 C 14.261719 29.851562 14.359375 29.949219 14.476562 29.949219 L 14.847656 29.949219 C 14.96875 29.949219 15.066406 29.851562 15.066406 29.730469 L 15.066406 19.644531 Z M 14.261719 19.644531"/></g><path fill="#FFF" d="M 14.664062 19.644531 C 14.308594 19.644531 14.019531 19.355469 14.019531 19.003906 L 14.019531 15.265625 C 14.019531 14.910156 14.308594 14.625 14.664062 14.625 C 15.015625 14.625 15.304688 14.910156 15.304688 15.265625 L 15.304688 19.003906 C 15.304688 19.359375 15.019531 19.644531 14.664062 19.644531 Z M 14.664062 19.644531"/><g clip-path="url(#g)"><path fill="#FFF" d="M 14.664062 15.910156 C 12.585938 15.910156 10.894531 13.640625 10.894531 10.851562 C 10.894531 8.066406 12.585938 5.800781 14.664062 5.800781 C 16.742188 5.800781 18.429688 8.066406 18.429688 10.851562 C 18.429688 13.640625 16.742188 15.910156 14.664062 15.910156 Z M 14.664062 7.082031 C 13.316406 7.082031 12.179688 8.808594 12.179688 10.851562 C 12.179688 12.898438 13.316406 14.625 14.664062 14.625 C 16.007812 14.625 17.148438 12.898438 17.148438 10.851562 C 17.148438 8.808594 16.007812 7.082031 14.664062 7.082031 Z M 14.664062 7.082031"/></g></svg>