<svg xmlns="http://www.w3.org/2000/svg" width="30" viewBox="0 0 30 30" height="30" version="1.0"><defs><clipPath id="a"><path d="M 1 0.742188 L 29 0.742188 L 29 28.324219 L 1 28.324219 Z M 1 0.742188"/></clipPath><clipPath id="b"><path d="M 16 4.414062 L 21.667969 4.414062 L 21.667969 13 L 16 13 Z M 16 4.414062"/></clipPath><clipPath id="c"><path d="M 17 4.414062 L 19 4.414062 L 19 9 L 17 9 Z M 17 4.414062"/></clipPath><clipPath id="d"><path d="M 18 4.414062 L 21 4.414062 L 21 9 L 18 9 Z M 18 4.414062"/></clipPath><clipPath id="e"><path d="M 17 14 L 21 14 L 21 24.621094 L 17 24.621094 Z M 17 14"/></clipPath><clipPath id="f"><path d="M 10 14 L 13 14 L 13 24.621094 L 10 24.621094 Z M 10 14"/></clipPath><clipPath id="g"><path d="M 8.332031 4.414062 L 15 4.414062 L 15 13 L 8.332031 13 Z M 8.332031 4.414062"/></clipPath></defs><g clip-path="url(#a)"><path fill="#28A745" d="M 14.664062 28.328125 C 12.367188 27.863281 10.035156 28.230469 7.726562 27.726562 C 6.78125 27.761719 7.46875 26.5625 6.65625 26.34375 C 6.316406 26.199219 6.089844 26.019531 6.265625 25.585938 C 6.191406 24.769531 4.988281 24.285156 4.359375 23.824219 C 0.535156 20.976562 1.507812 15.433594 1.878906 11.273438 C 2.8125 5.429688 8.988281 1.613281 14.425781 0.800781 C 16.273438 0.746094 18.097656 1.183594 19.914062 1.167969 C 21.167969 1.171875 22.152344 2.246094 23.421875 2.371094 C 26.253906 3.277344 27.34375 6.363281 28.328125 8.863281 C 28.378906 9.058594 28.570312 9.234375 28.34375 9.445312 C 28.203125 9.789062 28.644531 9.96875 28.59375 10.359375 C 28.449219 11.300781 28.707031 12.324219 28.121094 13.179688 C 27.101562 14.871094 29.445312 16.097656 27.730469 18.632812 C 27.402344 19.320312 27.351562 20.144531 26.773438 20.707031 C 26.257812 22.492188 24.78125 23.597656 23.359375 24.605469 C 22.1875 25.738281 20.851562 26.625 19.355469 27.269531 C 17.855469 27.910156 16.292969 28.265625 14.664062 28.328125 Z M 14.664062 28.328125"/></g><g clip-path="url(#b)"><path fill="#FFF" d="M 19.109375 12.453125 L 18.476562 12.453125 C 17.777344 12.453125 17.207031 12.226562 16.78125 11.769531 C 15.933594 10.871094 16.007812 9.421875 16.011719 9.359375 L 16.011719 4.941406 C 16.011719 4.660156 16.238281 4.433594 16.519531 4.433594 C 16.804688 4.433594 17.03125 4.660156 17.03125 4.941406 L 17.03125 9.390625 C 17.03125 9.429688 16.980469 10.5 17.523438 11.074219 C 17.753906 11.316406 18.066406 11.433594 18.476562 11.433594 L 19.109375 11.433594 C 19.519531 11.433594 19.832031 11.316406 20.0625 11.070312 C 20.601562 10.5 20.554688 9.429688 20.554688 9.417969 L 20.554688 4.941406 C 20.554688 4.660156 20.785156 4.433594 21.066406 4.433594 C 21.347656 4.433594 21.574219 4.660156 21.574219 4.941406 L 21.574219 9.390625 C 21.578125 9.421875 21.652344 10.871094 20.804688 11.769531 C 20.378906 12.226562 19.808594 12.453125 19.109375 12.453125 Z M 19.109375 12.453125"/></g><g clip-path="url(#c)"><path fill="#FFF" d="M 18.082031 8.210938 C 17.800781 8.210938 17.570312 7.984375 17.570312 7.703125 L 17.570312 4.929688 C 17.570312 4.644531 17.800781 4.417969 18.082031 4.417969 C 18.363281 4.417969 18.589844 4.644531 18.589844 4.929688 L 18.589844 7.703125 C 18.589844 7.984375 18.363281 8.210938 18.082031 8.210938 Z M 18.082031 8.210938"/></g><g clip-path="url(#d)"><path fill="#FFF" d="M 19.503906 8.210938 C 19.222656 8.210938 18.996094 7.984375 18.996094 7.703125 L 18.996094 4.929688 C 18.996094 4.644531 19.222656 4.417969 19.503906 4.417969 C 19.785156 4.417969 20.015625 4.644531 20.015625 4.929688 L 20.015625 7.703125 C 20.015625 7.984375 19.785156 8.210938 19.503906 8.210938 Z M 19.503906 8.210938"/></g><g clip-path="url(#e)"><path fill="#FFF" d="M 18.941406 24.628906 L 18.644531 24.628906 C 17.988281 24.628906 17.453125 24.09375 17.453125 23.433594 L 17.453125 14.914062 C 17.453125 14.632812 17.683594 14.402344 17.964844 14.402344 L 19.621094 14.402344 C 19.90625 14.402344 20.132812 14.632812 20.132812 14.914062 L 20.132812 23.433594 C 20.132812 24.09375 19.597656 24.628906 18.941406 24.628906 Z M 18.472656 15.421875 L 18.472656 23.433594 C 18.472656 23.527344 18.550781 23.605469 18.644531 23.605469 L 18.941406 23.605469 C 19.035156 23.605469 19.113281 23.527344 19.113281 23.433594 L 19.113281 15.421875 Z M 18.472656 15.421875"/></g><path fill="#FFF" d="M 18.792969 15.421875 C 18.511719 15.421875 18.28125 15.195312 18.28125 14.914062 L 18.28125 11.945312 C 18.28125 11.664062 18.511719 11.433594 18.792969 11.433594 C 19.074219 11.433594 19.304688 11.664062 19.304688 11.945312 L 19.304688 14.914062 C 19.304688 15.195312 19.074219 15.421875 18.792969 15.421875 Z M 18.792969 15.421875"/><g clip-path="url(#f)"><path fill="#FFF" d="M 11.492188 24.628906 L 11.199219 24.628906 C 10.542969 24.628906 10.007812 24.09375 10.007812 23.433594 L 10.007812 14.914062 C 10.007812 14.632812 10.234375 14.402344 10.515625 14.402344 L 12.175781 14.402344 C 12.457031 14.402344 12.6875 14.632812 12.6875 14.914062 L 12.6875 23.433594 C 12.6875 24.09375 12.152344 24.628906 11.492188 24.628906 Z M 11.027344 15.421875 L 11.027344 23.433594 C 11.027344 23.527344 11.105469 23.605469 11.199219 23.605469 L 11.492188 23.605469 C 11.589844 23.605469 11.667969 23.527344 11.667969 23.433594 L 11.667969 15.421875 Z M 11.027344 15.421875"/></g><path fill="#FFF" d="M 11.347656 15.421875 C 11.066406 15.421875 10.835938 15.195312 10.835938 14.914062 L 10.835938 11.945312 C 10.835938 11.664062 11.066406 11.433594 11.347656 11.433594 C 11.628906 11.433594 11.855469 11.664062 11.855469 11.945312 L 11.855469 14.914062 C 11.855469 15.195312 11.628906 15.421875 11.347656 15.421875 Z M 11.347656 15.421875"/><g clip-path="url(#g)"><path fill="#FFF" d="M 11.347656 12.453125 C 9.695312 12.453125 8.355469 10.652344 8.355469 8.441406 C 8.355469 6.226562 9.695312 4.425781 11.347656 4.425781 C 12.996094 4.425781 14.339844 6.226562 14.339844 8.441406 C 14.339844 10.652344 12.996094 12.453125 11.347656 12.453125 Z M 11.347656 5.445312 C 10.277344 5.445312 9.375 6.816406 9.375 8.441406 C 9.375 10.0625 10.277344 11.433594 11.347656 11.433594 C 12.417969 11.433594 13.320312 10.0625 13.320312 8.441406 C 13.320312 6.816406 12.417969 5.445312 11.347656 5.445312 Z M 11.347656 5.445312"/></g></svg>